<svg width="57" height="54" viewBox="0 0 57 54" fill="none" xmlns="http://www.w3.org/2000/svg">
<path d="M17 31H20C19.4 31.9143 21.75 34.0476 23 35L20 33.8571C18.8 33.4 17.5 31.7619 17 31Z" fill="white"/>
<path d="M38.9182 30L36.0661 30.5854C36.8162 31.3436 35.0012 33.8444 34 35L36.6275 33.3205C37.6785 32.6487 38.5926 30.8269 38.9182 30Z" fill="#B28383"/>
<path d="M38.9182 30L36.0661 30.5854C36.8162 31.3436 35.0012 33.8444 34 35L36.6275 33.3205C37.6785 32.6487 38.5926 30.8269 38.9182 30Z" fill="white"/>
<path d="M38 22.5116L37 18.5116H40.5C40.9 18.5116 41.6667 21.1783 42 22.5116H38Z" fill="#B28383"/>
<path d="M38 22.5116L37 18.5116H40.5C40.9 18.5116 41.6667 21.1783 42 22.5116H38Z" fill="white"/>
<path d="M34.5 29.0116V25.5116H30.5V29.0116H34.5Z" fill="#B28383"/>
<path d="M30.5 20.5116V18.5116H33C33.4 18.5116 33.8333 19.8449 34 20.5116H30.5Z" fill="#B28383"/>
<path d="M34.5 29.0116V25.5116H30.5V29.0116H34.5Z" stroke="black"/>
<path d="M30.5 20.5116V18.5116H33C33.4 18.5116 33.8333 19.8449 34 20.5116H30.5Z" stroke="black"/>
<path d="M34.5 29.0116V25.5116H30.5V29.0116H34.5Z" fill="white"/>
<path d="M30.5 20.5116V18.5116H33C33.4 18.5116 33.8333 19.8449 34 20.5116H30.5Z" fill="white"/>
<path d="M34.5 29.0116V25.5116H30.5V29.0116H34.5Z" stroke="white"/>
<path d="M30.5 20.5116V18.5116H33C33.4 18.5116 33.8333 19.8449 34 20.5116H30.5Z" stroke="white"/>
<path d="M21.5 26.0116C21.5 25.6116 21.8333 25.5116 22 25.5116H26V29.0116H23C22.5 28.1783 21.5 26.4116 21.5 26.0116Z" fill="white"/>
<path d="M15.5 29.5116C14.7 29.5116 14.1667 27.1783 14 26.0116H18C17.6 26.0116 18.1667 28.3449 18.5 29.5116H15.5Z" fill="white"/>
<path d="M40 28.5C40.8 28.5 41.3333 26.1667 41.5 25H37.5C37.9 25 37.3333 27.3333 37 28.5H40Z" fill="white"/>
<path d="M17.5 23.0116L18 19.0116H14.5C14.1 19.0116 13.6667 21.6783 13.5 23.0116H17.5Z" fill="white"/>
<path d="M21.4999 20.5116C21.0999 20.5116 21.6665 19.1783 21.9999 18.5116H26V20.5116H21.4999Z" fill="white"/>
<path d="M29 16.0116V11.0116C30.6 12.6116 31.6667 15.0116 32 16.0116H29Z" fill="white"/>
<path d="M36 16.0116C35.3333 14.8449 33.9 12.4116 33.5 12.0116C35.1 12.4116 37.8333 14.8449 39 16.0116H36Z" fill="white"/>
<path d="M1 10.0116C1 2.41158 7 0.844913 10 1.01158L46 1.0116C54 1.0116 56 7.0116 56 10.0116V44.0116C56 51.2116 50 53.0116 47 53.0116H11C3.4 53.0116 1.16667 46.9251 1 43.8818V10.0116Z" stroke="white"/>
<path d="M9 13.7572C9 8.05845 13.2545 6.88371 15.3818 7.00868L40.9091 7.0087C46.5818 7.0087 48 11.5077 48 13.7572V39.2515C48 44.6503 43.7455 46 41.6182 46H16.0909C10.7018 46 9.11818 41.4361 9 39.1542V13.7572Z" stroke="white"/>
<path d="M5 11.9816C5 5.26002 10.0182 3.87443 12.5273 4.02184L42.6364 4.02185C49.3273 4.02185 51 9.32836 51 11.9816V42.0518C51 48.4196 45.9818 50.0116 43.4727 50.0116H13.3636C7.00727 50.0116 5.13939 44.6286 5 41.9371V11.9816Z" stroke="white"/>
<path d="M44.5 23.0116C44.5 30.9502 36.9639 37.5116 27.5 37.5116C18.0361 37.5116 10.5 30.9502 10.5 23.0116C10.5 15.073 18.0361 8.5116 27.5 8.5116C36.9639 8.5116 44.5 15.073 44.5 23.0116Z" stroke="white"/>
<path d="M19.5 16.0116H16.5C16.1 15.6116 20 12.8449 22 11.5116L19.5 16.0116Z" fill="white"/>
<path d="M26 16.0116H23C22.2 16.0116 24.6666 12.6783 26 11.0116V16.0116Z" fill="white"/>
<path d="M30.5 14.5116H26V20.5116H19.5V25.0116H26V37.0116H30.5V24.5116H37V20.5116H30.5V14.5116Z" fill="white" stroke="#FFEFEF"/>
<path d="M33.1802 37.9384L36.9992 35.2585L38.0131 36.7033L32.3955 40.6454L26.27 31.9161L28.0686 30.6539L33.1802 37.9384ZM46.1549 30.9902L44.3563 32.2523L41.7311 28.5111L38.2238 30.9723L40.849 34.7134L39.0504 35.9755L32.9249 27.2462L34.7235 25.9841L37.2057 29.5214L40.713 27.0603L38.2308 23.523L40.0294 22.2609L46.1549 30.9902Z" fill="white"/>
<path d="M33.1802 37.9384L32.3616 38.5128L32.936 39.3313L33.7546 38.7569L33.1802 37.9384ZM36.9992 35.2585L37.8178 34.6841L37.2434 33.8655L36.4248 34.4399L36.9992 35.2585ZM38.0131 36.7033L38.5876 37.5219L39.4061 36.9475L38.8317 36.1289L38.0131 36.7033ZM32.3955 40.6454L31.5769 41.2198L32.1513 42.0383L32.9699 41.4639L32.3955 40.6454ZM26.27 31.9161L25.6956 31.0975L24.877 31.6719L25.4514 32.4905L26.27 31.9161ZM28.0686 30.6539L28.8872 30.0795L28.3128 29.261L27.4942 29.8354L28.0686 30.6539ZM33.7546 38.7569L37.5737 36.077L36.4248 34.4399L32.6058 37.1198L33.7546 38.7569ZM36.1807 35.8329L37.1946 37.2778L38.8317 36.1289L37.8178 34.6841L36.1807 35.8329ZM37.4387 35.8848L31.8211 39.8268L32.9699 41.4639L38.5876 37.5219L37.4387 35.8848ZM33.214 40.071L27.0886 31.3417L25.4514 32.4905L31.5769 41.2198L33.214 40.071ZM26.8444 32.7346L28.643 31.4725L27.4942 29.8354L25.6956 31.0975L26.8444 32.7346ZM27.25 31.2283L32.3616 38.5128L33.9987 37.3639L28.8872 30.0795L27.25 31.2283ZM46.1549 30.9902L46.7293 31.8087L47.5479 31.2343L46.9735 30.4158L46.1549 30.9902ZM44.3563 32.2523L43.5377 32.8267L44.1121 33.6453L44.9307 33.0709L44.3563 32.2523ZM41.7311 28.5111L42.5497 27.9367L41.9752 27.1182L41.1567 27.6926L41.7311 28.5111ZM38.2238 30.9723L37.6494 30.1537L36.8308 30.7281L37.4052 31.5467L38.2238 30.9723ZM40.849 34.7134L41.4234 35.532L42.2419 34.9576L41.6675 34.139L40.849 34.7134ZM39.0504 35.9755L38.2318 36.5499L38.8062 37.3685L39.6248 36.7941L39.0504 35.9755ZM32.9249 27.2462L32.3505 26.4276L31.5319 27.0021L32.1063 27.8206L32.9249 27.2462ZM34.7235 25.9841L35.5421 25.4097L34.9677 24.5911L34.1491 25.1655L34.7235 25.9841ZM37.2057 29.5214L36.3871 30.0958L36.9615 30.9144L37.7801 30.34L37.2057 29.5214ZM40.713 27.0603L41.2874 27.8788L42.1059 27.3044L41.5315 26.4859L40.713 27.0603ZM38.2308 23.523L37.6564 22.7044L36.8378 23.2788L37.4122 24.0974L38.2308 23.523ZM40.0294 22.2609L40.848 21.6865L40.2736 20.8679L39.455 21.4423L40.0294 22.2609ZM45.5805 30.1716L43.7819 31.4337L44.9307 33.0709L46.7293 31.8087L45.5805 30.1716ZM45.1749 31.6779L42.5497 27.9367L40.9125 29.0856L43.5377 32.8267L45.1749 31.6779ZM41.1567 27.6926L37.6494 30.1537L38.7982 31.7909L42.3055 29.3297L41.1567 27.6926ZM37.4052 31.5467L40.0304 35.2878L41.6675 34.139L39.0423 30.3979L37.4052 31.5467ZM40.2746 33.8948L38.4759 35.157L39.6248 36.7941L41.4234 35.532L40.2746 33.8948ZM39.8689 35.4011L33.7434 26.6718L32.1063 27.8206L38.2318 36.5499L39.8689 35.4011ZM33.4993 28.0648L35.2979 26.8027L34.1491 25.1655L32.3505 26.4276L33.4993 28.0648ZM33.9049 26.5585L36.3871 30.0958L38.0242 28.947L35.5421 25.4097L33.9049 26.5585ZM37.7801 30.34L41.2874 27.8788L40.1386 26.2417L36.6313 28.7028L37.7801 30.34ZM41.5315 26.4859L39.0494 22.9486L37.4122 24.0974L39.8944 27.6347L41.5315 26.4859ZM38.8052 24.3415L40.6038 23.0794L39.455 21.4423L37.6564 22.7044L38.8052 24.3415ZM39.2109 22.8353L45.3363 31.5646L46.9735 30.4158L40.848 21.6865L39.2109 22.8353Z" fill="#FFEFEF"/>
<path d="M31.1264 42.4878L32.1264 45.4878L38.1265 45.4878V42.9878V41.9878V40.4878C37.9598 40.3211 37.5265 40.0878 37.1265 40.4878C36.7265 40.8878 36.2931 43.9878 36.1265 45.4878C35.9598 45.4878 35.6265 44.5877 35.6265 40.9877C35.6265 37.3877 34.6265 39.4877 34.1265 40.9877L33.6265 44.9877C33.2931 43.9878 32.4264 41.6878 31.6264 40.4878C30.8264 39.2878 30.9598 41.3211 31.1264 42.4878Z" fill="white"/>
<path d="M37.0489 42.9784C37.8822 43.8117 39.6489 45.4784 40.0489 45.4784L40.0488 45.9783L45.5488 45.4783C45.8822 44.9783 46.6488 43.0783 47.0488 39.4783C47.4488 35.8783 46.5488 36.9783 46.0488 37.9783L45.5488 43.9783C45.3822 43.8117 44.8488 42.6783 44.0488 39.4783C43.2488 36.2783 42.7155 37.145 42.5488 37.9783L43.5488 43.9783C43.3822 43.8116 42.6488 42.6783 41.0488 39.4783C39.4488 36.2783 39.7155 38.4783 40.0488 39.9783L42.0488 45.4783C41.8822 45.3117 41.0489 44.6784 39.0489 43.4784C37.0489 42.2784 36.8822 42.645 37.0489 42.9784Z" fill="white"/>
<path d="M16 41H10V43L47.5 42V41H16Z" fill="white"/>
<path d="M19.861 44.602L17.1773 42.1942L12.9164 39.6754C11.8429 38.7123 13.0318 38.7854 13.7605 38.9423L17.897 40.9768C17.8555 40.8154 17.258 39.6955 15.1998 36.5075C13.1416 33.3194 14.4161 34.1276 15.3107 34.9302L18.9765 39.1507C18.8935 38.8278 18.4067 37.3353 17.1233 33.9481C15.8399 30.561 17.1513 32.0481 17.9674 33.215L20.7891 38.1686L19.5447 33.326C18.4247 28.9676 20.5132 33.0771 21.993 36.8268C23.1768 39.8265 24.3584 40.0047 24.8012 39.7189C24.5433 37.376 24.3235 33.4402 25.5073 36.4399C26.6912 39.4397 26.0276 41.8129 25.5478 42.6245L25.3259 45.779L20.3588 46.5391L19.861 44.602Z" fill="white"/>
</svg>
